# xmcd
#
# Track frame offsets:
#	150
#	16267
#	35751
#	51941
#	68346
#	89267
#	105877
#	127507
#	146163
#	158118
#	170634
#	189567
#	207302
#
# Disc length: 3036 seconds
# Revision: 0
# Processed by: cddbd v1.5.2PL0 Copyright (c) Steve Scherf et al.
# Submitted via: dBpowerAMP V12.0
#
DISCID=a60bda0d
DTITLE=Wherrol B Flat - Wherrol B Flat - Life on The Run (Indie)
DYEAR=1900
DGENRE=Country Indie
TTITLE0=A Day in The Run
TTITLE1=Where I Want To be
TTITLE2=Monira
TTITLE3=Burning Light
TTITLE4=My Country Song
TTITLE5=Callum Harvey
TTITLE6=Through My Tears
TTITLE7=Travellers
TTITLE8=Little one
TTITLE9=Mayor Of Wherrol Flat
TTITLE10=Proud To be Australian
TTITLE11=Eleena Rose
TTITLE12=Don't Get Much Better
EXTD=
EXTT0=
EXTT1=
EXTT2=
EXTT3=
EXTT4=
EXTT5=
EXTT6=
EXTT7=
EXTT8=
EXTT9=
EXTT10=
EXTT11=
EXTT12=
PLAYORDER=
